<?xml version="1.0" encoding="UTF-8"?>
<svg id="Layer_2" xmlns="http://www.w3.org/2000/svg" viewBox="0 0 297.61 297.61">
  <defs>
    <style>
      .cls-1 {
        fill: #fff;
      }
    </style>
  </defs>
  <g id="Layer_1-2" data-name="Layer_1">
    <circle cx="148.8" cy="148.8" r="148.8"/>
    <path class="cls-1" d="M115.16,164.48c-.07,3.13.24,6.24.34,9.36.04,1.39.38,2.77.5,4.18.21,2.4.47,4.79.73,7.19.11,1.04.37,2.09.41,3.11.08,1.85.65,3.61.72,5.44.03.83.38,1.56.5,2.37.26,1.71.68,3.39.99,5.09.46,2.46.86,4.94,1.33,7.4.12.62-.15,1.36.5,1.87.08.06-.25.35-.22.65.11.89.14,1.8.22,2.69.29,3.25.14,6.44-.81,9.62-.86,2.87-1.91,5.62-3.88,7.9-2.15,2.49-4.39,4.88-7.33,6.54-2.81,1.58-5.72,2.84-8.81,3.74-2.42.71-4.86,1.09-7.4,1.04-1.51-.03-3.03.31-4.57.25-2.95-.12-5.8-.65-8.64-1.46-1.62-.46-3.14-1.12-4.66-1.78-2.21-.96-4.23-2.3-6.17-3.74-2.66-1.96-4.83-4.39-6.76-7.05-2.19-3.02-4.01-6.26-5.7-9.58-1.58-3.11-2.81-6.35-3.86-9.68-.95-3.01-1.74-6.06-2.45-9.13-.75-3.2-1.35-6.44-1.76-9.71-.46-3.67-.97-7.33-1.26-11.02-.24-2.97-.44-5.95-.49-8.94-.02-1.4-.08-2.81-.19-4.22-.13-1.68-.08-3.38-.11-5.07-.01-.71-.07-1.43-.06-2.14.09-5.44.1-10.88.31-16.31.21-5.51.6-11.01,1.12-16.5.28-2.99.48-6,.87-8.97.37-2.79.69-5.58,1.15-8.36.35-2.09.77-4.17,1.14-6.26.27-1.52.72-3.02,1.09-4.52.25-1.02.49-2.03.78-3.04.36-1.24.77-2.45,1.14-3.69.64-2.18,1.54-4.26,2.4-6.36,1.19-2.92,2.65-5.7,4.19-8.43,1.18-2.09,2.7-3.96,4.11-5.91,1.06-1.46,2.34-2.72,3.61-3.94,1.29-1.24,2.61-2.5,4.18-3.45,1.14-.69,2.18-1.54,3.37-2.16,2.84-1.47,5.75-2.7,8.93-3.32,2.21-.44,4.43-.65,6.66-.77,1.73-.09,3.46.11,5.18.38,1.6.25,3.19.48,4.75.96,2.45.76,4.78,1.77,6.99,3.09,2.04,1.23,4.05,2.51,5.89,4.02,1.64,1.34,3.18,2.81,4.55,4.45,1.98,2.36,3.57,4.96,4.77,7.78.54,1.28,1.21,2.49,1.72,3.78.77,1.93,1.48,3.88,2.26,5.81,1.65,4.12,3.51,8.12,6.27,11.64.9,1.15,1.93,2.18,3.08,3.08.6.47,1.23.92,1.78,1.44.67.63,1.56,1,2.34,1.16,1.54.32,3.11.68,4.71.71,2.25.04,4.48,0,6.71-.42,3.34-.63,6.18-2.04,8.49-4.62,1.51-1.69,2.46-3.61,3.25-5.67,1.21-3.15,1.82-6.49,2.86-9.69,1.2-3.71,2.64-7.3,4.77-10.61,1.21-1.89,2.33-3.85,3.75-5.57,2.33-2.82,4.94-5.37,7.91-7.54,2.39-1.74,4.98-3.07,7.65-4.32,2.71-1.27,5.55-1.82,8.46-2.26,2.53-.39,5.05-.34,7.56-.09,1.67.16,3.31.61,4.9,1.2,1.99.74,4.02,1.4,5.89,2.41,1.95,1.05,3.76,2.33,5.43,3.8,2.3,2.02,4.43,4.18,6.39,6.52,1.24,1.48,2.27,3.12,3.28,4.77,1.43,2.35,2.66,4.8,3.79,7.3.85,1.89,1.53,3.86,2.27,5.79,1.28,3.37,2.24,6.84,3.13,10.32.68,2.7,1.42,5.39,1.96,8.13.34,1.7.81,3.39,1.13,5.1.39,2.06.65,4.15,1.14,6.18.45,1.86.7,3.75.99,5.63.38,2.47.65,4.97,1.03,7.44.39,2.52.6,5.06.98,7.58.36,2.36.52,4.74.7,7.12.31,4.21.65,8.42.97,12.63.09,1.19.14,2.38.17,3.57.12,5.3.26,10.61.13,15.92-.09,3.55-.1,7.11-.41,10.66-.34,3.94-.63,7.89-1.11,11.82-.45,3.77-1.02,7.52-1.77,11.23-.74,3.66-1.73,7.27-3,10.79-.61,1.7-1.23,3.4-1.94,5.05-.55,1.27-1.18,2.54-1.89,3.76-1.35,2.32-2.88,4.5-4.7,6.45-2.62,2.8-6.03,4.2-9.7,5.06-2.02.48-4.06.57-6.11.58-1.22,0-2.43.22-3.65.13-2.71-.21-5.44-.09-8.14-.5-4.3-.66-7.97-2.62-11.42-5.18-3.46-2.57-5.52-6.15-7.52-9.8-1.24-2.27-2.28-4.62-2.96-7.11-.68-2.51-1.14-5.06-1.55-7.63-.49-3.08-.52-6.18-.65-9.27-.04-1,.05-2,.11-3,.16-2.91.32-5.82.71-8.7.33-2.45.65-4.91,1.18-7.34.48-2.21.77-4.47,1.21-6.69.62-3.19,1.31-6.36,1.93-9.54.29-1.5.59-3,.74-4.52.22-2.18.54-4.38-.05-6.55-.44-1.66-1.44-2.79-3.12-3.32-2.6-.83-5.12-.62-7.64.32-3.34,1.24-6.22,3.18-8.88,5.54-2.65,2.35-5.17,4.83-7.54,7.45-1.41,1.56-2.92,3.02-4.27,4.63-1.07,1.28-2.37,2.36-3.7,3.37-1.47,1.11-3.25.93-4.98-.31-2.3-1.64-4.17-3.72-6.01-5.83-3.25-3.73-6.54-7.43-10.47-10.47-1.16-.9-2.41-1.7-3.77-2.32-1.43-.66-2.85-1.3-4.37-1.75-1.46-.43-2.92-.34-4.39-.28-.87.03-1.75-.11-2.62.18-1.92.64-2.45,2.28-2.92,3.95-.68,2.39-.8,4.84-.74,7.31Z"/>
  </g>
</svg>